<svg xmlns="http://www.w3.org/2000/svg" data-name="Artboard 30" viewBox="0 0 64 64" id="puppet-show"><rect width="4" height="14.223" x="30" y="14" fill="#ffe693"></rect><rect width="4" height="23.765" x="50" y="11" fill="#ffe693"></rect><polygon fill="#ffe693" points="10 50.683 10 10 14 10 14 47.633 10 50.683"></polygon><path fill="#684025" d="M29,7H8A1,1,0,0,0,7,8v4a1,1,0,0,0,1,1H56a1,1,0,0,0,1-1V8a1,1,0,0,0-1-1H29Z"></path><path fill="#ccced5" d="M23,51H17a2,2,0,0,0-2,2v6a3,3,0,0,1-3,3h0a3,3,0,0,1-3-3V51a6,6,0,0,1,6-6H47a2,2,0,0,0,2-2V35a3,3,0,0,1,3-3h0a3,3,0,0,1,3,3V45a6,6,0,0,1-6,6H23Z"></path><rect width="6" height="16" x="29" y="2" fill="#866651" rx="1"></rect><path fill="#fff" d="M56 7H37v.478A2.522 2.522 0 0039.522 10H57V8A1 1 0 0056 7zM9 7H29a0 0 0 010 0v3a0 0 0 010 0H11.467A2.467 2.467 0 019 7.533V7A0 0 0 019 7z" opacity=".1"></path><path fill="#953528" d="M36.126,41H37a4,4,0,0,1,4,4V58a4,4,0,0,1-4,4H27a4,4,0,0,1-4-4V45a4,4,0,0,1,4-4h9.126Z"></path><path fill="#fff" d="M37,41H27a3.977,3.977,0,0,0-1,.141V51.348A6.652,6.652,0,0,0,32.652,58H41V45A4,4,0,0,0,37,41Z" opacity=".2"></path><circle cx="32" cy="33" r="9" fill="#ccced5"></circle><path fill="#fff" d="M32,24a8.993,8.993,0,0,0-7.874,4.645A11.941,11.941,0,0,0,39.041,38.6,8.993,8.993,0,0,0,32,24Z" opacity=".2"></path><path fill="#e0bb5f" d="M50 13h4a0 0 0 010 0v2.663A2.337 2.337 0 0151.663 18H50a0 0 0 010 0V13A0 0 0 0150 13zM30 18h4a0 0 0 010 0v2.663A2.337 2.337 0 0131.663 23H30a0 0 0 010 0V18A0 0 0 0130 18zM10 13h4a0 0 0 010 0v2.663A2.337 2.337 0 0111.663 18H10a0 0 0 010 0V13A0 0 0 0110 13z"></path><path d="M56,6H36V3a2,2,0,0,0-2-2H30a2,2,0,0,0-2,2V6H8A2,2,0,0,0,6,8v4a2,2,0,0,0,2,2H9V47.413A6.944,6.944,0,0,0,8,51v8a4,4,0,0,0,8,0V53a1,1,0,0,1,1-1h5v6a5.006,5.006,0,0,0,5,5H37a5.006,5.006,0,0,0,5-5V52h7a7.008,7.008,0,0,0,7-7V35a3.966,3.966,0,0,0-1-2.618V14h1a2,2,0,0,0,2-2V8A2,2,0,0,0,56,6ZM32,41a8,8,0,1,1,8-8A8.009,8.009,0,0,1,32,41Zm0-18a10.007,10.007,0,0,0-1,.051V19h2v4.051A10.007,10.007,0,0,0,32,23ZM30,3h4V17H30ZM8,8H28v4H8Zm5,6V44.3a6.957,6.957,0,0,0-2,.969V14Zm4,36a3,3,0,0,0-3,3v6a2,2,0,0,1-4,0V51a5.006,5.006,0,0,1,5-5h7v4Zm5.1-6H15V14H28v3a1.993,1.993,0,0,0,1,1.722v4.739a9.981,9.981,0,0,0-3.769,16.878A5.007,5.007,0,0,0,22.1,44ZM40,58a3,3,0,0,1-3,3H27a3,3,0,0,1-3-3V45a3,3,0,0,1,3-3h.67a9.874,9.874,0,0,0,8.66,0H37a3,3,0,0,1,3,3ZM38.769,40.339A9.981,9.981,0,0,0,35,23.461V18.722A1.993,1.993,0,0,0,36,17V14H49V32.382A3.966,3.966,0,0,0,48,35v8a1,1,0,0,1-1,1H41.9A5.007,5.007,0,0,0,38.769,40.339ZM54,45a5.006,5.006,0,0,1-5,5H42V46h5a3,3,0,0,0,3-3V35a2,2,0,0,1,4,0ZM53,31.142a3.592,3.592,0,0,0-2,0V14h2ZM56,12H36V8H56Z"></path></svg>